<svg xmlns="http://www.w3.org/2000/svg" viewBox="0 0 74.98 47.7"><defs><style>.a{fill:#55606e;}.b{fill:#8bc5ce;}</style></defs><title>am</title><path class="a" d="M21.16,16.45q5.93,0,8.74,2.86t2.8,8.47V36a8.53,8.53,0,0,1-.56,3.17,5.77,5.77,0,0,1-1.54,2.26,12,12,0,0,1-2.08,1.47,8.77,8.77,0,0,1-2.42.9,22.82,22.82,0,0,1-2.33.4,18.82,18.82,0,0,1-2,.11,18.07,18.07,0,0,1-2.07-.12,23.29,23.29,0,0,1-2.4-.42,9.62,9.62,0,0,1-2.49-.93,11.3,11.3,0,0,1-2.15-1.51,6.06,6.06,0,0,1-1.57-2.29,8.27,8.27,0,0,1-.57-3.14,7.86,7.86,0,0,1,.6-3.12,7.09,7.09,0,0,1,1.51-2.3,8.71,8.71,0,0,1,2.21-1.55,13.77,13.77,0,0,1,2.45-1,18.94,18.94,0,0,1,2.52-.52q1.36-.19,2.12-0.23t1.52,0a36.11,36.11,0,0,1,6.45.54q0-4.3-2.16-6.41T21,19.2ZM13.24,35.91a5.31,5.31,0,0,0,.57,2.5,4.81,4.81,0,0,0,1.44,1.71,7.55,7.55,0,0,0,2.07,1,12.17,12.17,0,0,0,2.26.53,17,17,0,0,0,2.18.14,15.14,15.14,0,0,0,2.7-.23,11.43,11.43,0,0,0,2.6-.82A4.78,4.78,0,0,0,29.17,39,5.29,5.29,0,0,0,30,36v-5.8a46.77,46.77,0,0,0-6.83-.49q-1.2,0-2.35.11a15.22,15.22,0,0,0-2.59.5,9.48,9.48,0,0,0-2.46,1A5.42,5.42,0,0,0,14,33.19,5.08,5.08,0,0,0,13.24,35.91Z" transform="translate(-1.65 -1.19)"/><path class="b" d="M37.48,43.94V19.25a23.84,23.84,0,0,1,11-2.86q4.93,0,7.43,2.8a22.92,22.92,0,0,1,10.7-2.8q4.79,0,7.42,2.53t2.63,7.41V43.94h-2.8V26.33a10.36,10.36,0,0,0-.34-2.79,6.38,6.38,0,0,0-1.14-2.23A5,5,0,0,0,70,19.74a10.65,10.65,0,0,0-3.62-.54,21.24,21.24,0,0,0-8.93,2.12,12.52,12.52,0,0,1,1,5V43.94H55.67V26.33a10,10,0,0,0-.35-2.79,6.44,6.44,0,0,0-1.17-2.23,5.11,5.11,0,0,0-2.34-1.57,11,11,0,0,0-3.68-.54,20,20,0,0,0-7.87,1.66V43.94H37.48Z" transform="translate(-1.65 -1.19)"/><path class="b" d="M3.65,48.88A2,2,0,0,1,2,45.83L29.09,2.13a2,2,0,0,1,3.4,2.11L5.35,47.94A2,2,0,0,1,3.65,48.88Z" transform="translate(-1.65 -1.19)"/></svg>