<?xml version="1.0" encoding="utf-8"?>
<!-- Generator: Adobe Illustrator 17.1.0, SVG Export Plug-In . SVG Version: 6.00 Build 0)  -->
<!DOCTYPE svg PUBLIC "-//W3C//DTD SVG 1.1//EN" "http://www.w3.org/Graphics/SVG/1.1/DTD/svg11.dtd">
<svg version="1.1" id="Layer_1" xmlns="http://www.w3.org/2000/svg" xmlns:xlink="http://www.w3.org/1999/xlink" x="0px" y="0px"
	 viewBox="0 0 47.5 36.3" enable-background="new 0 0 47.5 36.3" xml:space="preserve">
<g>
	<path fill="#E44F26" d="M16.3,31.5c-0.8-0.2-1.4-0.6-2.1-1c-0.6-0.5-1.1-1.1-1.5-1.9l-0.5,1.2c0.1,0.2,0.2,0.3,0.3,0.5
		c0.5,0.6,1.1,1.1,1.8,1.5c0.7,0.4,1.4,0.7,2.1,0.8c0.7,0.2,1.5,0.2,2.3,0.2c2,0,3.8-0.3,5.3-1v-1c-1.4,0.7-3.1,1.1-5.3,1.1
		C17.9,31.8,17.1,31.7,16.3,31.5z"/>
	<path fill="#E44F26" d="M25.2,23.3c0-0.3-0.1-0.8-0.2-1.4c-0.1-0.6-0.2-1.1-0.4-1.6c-0.2-0.5-0.4-1-0.8-1.6c-0.4-0.6-0.8-1-1.2-1.4
		c-0.5-0.4-1.1-0.7-1.8-1c-0.7-0.3-1.6-0.4-2.5-0.4c0,0-0.1,0-0.1,0l-0.4,0.9c0.1,0,0.3,0,0.4,0c1,0,1.8,0.2,2.6,0.6
		c0.8,0.4,1.3,0.8,1.7,1.3c0.4,0.5,0.7,1.1,1,1.8c0.3,0.7,0.4,1.3,0.5,1.7c0.1,0.5,0.1,1,0.1,1.4V24h-9.5l-0.4,0.9h10.8
		c0-0.1,0-0.3,0-0.6C25.3,24,25.2,23.7,25.2,23.3z"/>
</g>
<g>
	<path fill="#2CB3C4" d="M7.9,36.3L20.6,6.7h1.6L9.5,36.3H7.9z"/>
</g>
<path fill="#2CB3C4" d="M28.6,27.8v-18h0.9v7.1c1.7-0.6,3.4-1,5.2-1c0.5,0,1.1,0,1.5,0.1c0.5,0.1,1,0.2,1.5,0.4
	c0.5,0.2,1,0.4,1.4,0.7c0.4,0.3,0.8,0.6,1.2,1.1c0.4,0.4,0.7,0.9,1,1.5c0.3,0.6,0.5,1.2,0.6,2c0.2,0.8,0.2,1.7,0.2,2.6
	c0,1.4-0.2,2.7-0.5,3.7c-0.3,1.1-0.7,1.9-1.2,2.5c-0.5,0.6-1.1,1.1-1.8,1.4c-0.7,0.4-1.3,0.6-1.9,0.7c-0.6,0.1-1.2,0.2-1.9,0.2
	c-1.1,0-2-0.1-2.9-0.4c-0.8-0.3-1.4-0.6-1.9-1c-0.4-0.4-0.8-0.8-1-1.3c-0.3-0.5-0.4-0.9-0.5-1.3C28.6,28.4,28.6,28.1,28.6,27.8z
	 M29.6,27.8c0,0.3,0,0.6,0.1,1s0.3,0.7,0.5,1.1c0.2,0.4,0.6,0.7,0.9,1c0.4,0.3,0.9,0.5,1.6,0.7c0.7,0.2,1.4,0.3,2.2,0.3
	c4.3,0,6.4-2.6,6.4-7.7c0-5-2.2-7.5-6.5-7.5c-1.8,0-3.6,0.3-5.2,1V27.8z"/>
</svg>
