<svg xmlns="http://www.w3.org/2000/svg" viewBox="0 0 318.41 47.7"><defs><style>.a{fill:#55606e;}.b{fill:#8bc5ce;}</style></defs><title>logo</title><path class="a" d="M21.16,16.45q5.93,0,8.74,2.86t2.8,8.47V36a8.53,8.53,0,0,1-.56,3.17,5.77,5.77,0,0,1-1.54,2.26,12,12,0,0,1-2.08,1.47,8.77,8.77,0,0,1-2.42.9,22.82,22.82,0,0,1-2.33.4,18.82,18.82,0,0,1-2,.11,18.07,18.07,0,0,1-2.07-.12,23.29,23.29,0,0,1-2.4-.42,9.62,9.62,0,0,1-2.49-.93,11.3,11.3,0,0,1-2.15-1.51,6.06,6.06,0,0,1-1.57-2.29,8.27,8.27,0,0,1-.57-3.14,7.86,7.86,0,0,1,.6-3.12,7.09,7.09,0,0,1,1.51-2.3,8.71,8.71,0,0,1,2.21-1.55,13.77,13.77,0,0,1,2.45-1,18.94,18.94,0,0,1,2.52-.52q1.36-.19,2.12-0.23t1.52,0a36.11,36.11,0,0,1,6.45.54q0-4.3-2.16-6.41T21,19.2ZM13.24,35.91a5.31,5.31,0,0,0,.57,2.5,4.81,4.81,0,0,0,1.44,1.71,7.55,7.55,0,0,0,2.07,1,12.17,12.17,0,0,0,2.26.53,17,17,0,0,0,2.18.14,15.14,15.14,0,0,0,2.7-.23,11.43,11.43,0,0,0,2.6-.82A4.78,4.78,0,0,0,29.17,39,5.29,5.29,0,0,0,30,36v-5.8a46.77,46.77,0,0,0-6.83-.49q-1.2,0-2.35.11a15.22,15.22,0,0,0-2.59.5,9.48,9.48,0,0,0-2.46,1A5.42,5.42,0,0,0,14,33.19,5.08,5.08,0,0,0,13.24,35.91Z" transform="translate(-1.65 -1.19)"/><path class="a" d="M38.17,43.94V6.48H41V43.94h-2.8Z" transform="translate(-1.65 -1.19)"/><path class="a" d="M44.26,16.91h3l9.36,23.58L66,16.91h2.94L58,43.94H55.2q-2-5-5.74-14.16T44.26,16.91Z" transform="translate(-1.65 -1.19)"/><path class="a" d="M69.95,35.91a7.86,7.86,0,0,1,.6-3.12,7.09,7.09,0,0,1,1.51-2.3,8.71,8.71,0,0,1,2.21-1.55,13.77,13.77,0,0,1,2.45-1,18.94,18.94,0,0,1,2.52-.52q1.36-.19,2.12-0.23t1.52,0a36.11,36.11,0,0,1,6.45.54q0-4.3-2.16-6.41T80.43,19.2a27,27,0,0,0-7.7,1.23v-2.7a24.39,24.39,0,0,1,7.87-1.28q5.93,0,8.74,2.86t2.8,8.47V36a8.53,8.53,0,0,1-.56,3.17A5.77,5.77,0,0,1,90,41.45,12,12,0,0,1,88,42.92a8.77,8.77,0,0,1-2.42.9,22.82,22.82,0,0,1-2.33.4,18.82,18.82,0,0,1-2,.11,18.07,18.07,0,0,1-2.07-.12,23.29,23.29,0,0,1-2.4-.42,9.62,9.62,0,0,1-2.49-.93,11.3,11.3,0,0,1-2.15-1.51,6.06,6.06,0,0,1-1.57-2.29A8.27,8.27,0,0,1,69.95,35.91Zm2.72,0a5.31,5.31,0,0,0,.57,2.5,4.81,4.81,0,0,0,1.44,1.71,7.55,7.55,0,0,0,2.07,1,12.17,12.17,0,0,0,2.26.53,17,17,0,0,0,2.18.14,15.14,15.14,0,0,0,2.7-.23,11.43,11.43,0,0,0,2.6-.82A4.78,4.78,0,0,0,88.59,39a5.29,5.29,0,0,0,.79-3v-5.8a46.77,46.77,0,0,0-6.83-.49q-1.2,0-2.35.11a15.22,15.22,0,0,0-2.59.5,9.48,9.48,0,0,0-2.46,1,5.42,5.42,0,0,0-1.76,1.81A5.08,5.08,0,0,0,72.67,35.91Z" transform="translate(-1.65 -1.19)"/><path class="a" d="M97.1,43.94V19q1.12-.49,2.61-1a37.32,37.32,0,0,1,4.38-1,32.34,32.34,0,0,1,5.69-.57v2.69a38.14,38.14,0,0,0-10,1.66V43.94H97.1Z" transform="translate(-1.65 -1.19)"/><path class="a" d="M111.1,36.24a20,20,0,0,1-.78-5.85,20,20,0,0,1,.78-5.85,12.1,12.1,0,0,1,2-4A9.84,9.84,0,0,1,116,18a11.9,11.9,0,0,1,3.38-1.29,18.85,18.85,0,0,1,7.13,0A11.9,11.9,0,0,1,129.9,18a10,10,0,0,1,2.94,2.46,11.93,11.93,0,0,1,2,4,20,20,0,0,1,.78,5.85,20,20,0,0,1-.78,5.85,11.93,11.93,0,0,1-2,4,10,10,0,0,1-2.94,2.46A11.87,11.87,0,0,1,126.52,44a18.85,18.85,0,0,1-7.13,0A11.87,11.87,0,0,1,116,42.75a9.83,9.83,0,0,1-2.93-2.46A12.1,12.1,0,0,1,111.1,36.24ZM113.75,25a18,18,0,0,0-.71,5.38,18,18,0,0,0,.71,5.38,8.4,8.4,0,0,0,2,3.55,8.08,8.08,0,0,0,3.1,1.91,12.63,12.63,0,0,0,4.06.6q4.76,0,7.35-2.67t2.59-8.77q0-6.1-2.59-8.77T123,19a12.64,12.64,0,0,0-4.06.6,8.08,8.08,0,0,0-3.1,1.91A8.4,8.4,0,0,0,113.75,25Z" transform="translate(-1.65 -1.19)"/><path class="b" d="M140.07,43.94V19.25a23.84,23.84,0,0,1,11-2.86q4.93,0,7.43,2.8a22.92,22.92,0,0,1,10.7-2.8q4.79,0,7.42,2.53t2.63,7.41V43.94h-2.8V26.33a10.36,10.36,0,0,0-.34-2.79,6.38,6.38,0,0,0-1.14-2.23,5,5,0,0,0-2.3-1.57A10.65,10.65,0,0,0,169,19.2a21.24,21.24,0,0,0-8.93,2.12,12.52,12.52,0,0,1,1,5V43.94h-2.78V26.33a10,10,0,0,0-.35-2.79,6.44,6.44,0,0,0-1.17-2.23,5.11,5.11,0,0,0-2.34-1.57,11,11,0,0,0-3.68-.54,20,20,0,0,0-7.87,1.66V43.94h-2.78Z" transform="translate(-1.65 -1.19)"/><path class="b" d="M184.39,36.24a20,20,0,0,1-.78-5.85,20,20,0,0,1,.78-5.85,12.1,12.1,0,0,1,2-4A9.84,9.84,0,0,1,189.31,18a11.9,11.9,0,0,1,3.38-1.29,18.85,18.85,0,0,1,7.13,0A11.9,11.9,0,0,1,203.19,18a10,10,0,0,1,2.94,2.46,11.93,11.93,0,0,1,2,4,20,20,0,0,1,.78,5.85,20,20,0,0,1-.78,5.85,11.93,11.93,0,0,1-2,4,10,10,0,0,1-2.94,2.46A11.87,11.87,0,0,1,199.81,44a18.85,18.85,0,0,1-7.13,0,11.87,11.87,0,0,1-3.38-1.29,9.83,9.83,0,0,1-2.93-2.46A12.1,12.1,0,0,1,184.39,36.24ZM187,25a18,18,0,0,0-.71,5.38,18,18,0,0,0,.71,5.38,8.4,8.4,0,0,0,2,3.55,8.08,8.08,0,0,0,3.1,1.91,12.63,12.63,0,0,0,4.06.6q4.76,0,7.35-2.67t2.59-8.77q0-6.1-2.59-8.77T196.25,19a12.64,12.64,0,0,0-4.06.6,8.08,8.08,0,0,0-3.1,1.91A8.4,8.4,0,0,0,187,25Z" transform="translate(-1.65 -1.19)"/><path class="b" d="M213.14,43.94V19.31a29,29,0,0,1,5.1-2,22.46,22.46,0,0,1,6.49-.91q5,0,7.76,2.52t2.72,7.42V43.94h-2.8V26.33a9.45,9.45,0,0,0-.38-2.8,6.31,6.31,0,0,0-1.24-2.23,5.44,5.44,0,0,0-2.46-1.55,12.21,12.21,0,0,0-3.89-.54,23.3,23.3,0,0,0-8.58,1.71v23h-2.72Z" transform="translate(-1.65 -1.19)"/><path class="b" d="M237.42,19.36V16.91h4.36V9.26h2.78v7.65h7.81v2.45h-7.81V37.25q0,2.56,1.24,3.54a5.32,5.32,0,0,0,3.39,1,10,10,0,0,0,3.29-.54v2.61a14.55,14.55,0,0,1-3.62.49q-7.08,0-7.08-7v-18h-4.36Z" transform="translate(-1.65 -1.19)"/><path class="b" d="M253.74,31q0-1.06.1-2.16a20.46,20.46,0,0,1,.42-2.59,17.75,17.75,0,0,1,.84-2.78,12.65,12.65,0,0,1,1.46-2.61,10.62,10.62,0,0,1,2.15-2.26,9.8,9.8,0,0,1,3-1.52,13.14,13.14,0,0,1,4-.58,12.58,12.58,0,0,1,3.4.44A10.09,10.09,0,0,1,271.84,18a9.16,9.16,0,0,1,2,1.71,12.19,12.19,0,0,1,1.46,2,10.31,10.31,0,0,1,.92,2.22l0.62,2.15a12.53,12.53,0,0,1,.4,2q0.13,1,.16,1.52a7.9,7.9,0,0,1,0,1v0.62q0,0.27,0,.41c0,0.09,0,.17,0,0.23a1,1,0,0,0,0,.15V32H256.57a7.93,7.93,0,0,0,.52,2.4q1.09,7.24,9.69,7.24a18.2,18.2,0,0,0,8.81-1.91v2.86a21.26,21.26,0,0,1-9,1.72,19.11,19.11,0,0,1-3.69-.34,12.15,12.15,0,0,1-3.46-1.28,10,10,0,0,1-2.94-2.4,11.35,11.35,0,0,1-2-3.85A18.13,18.13,0,0,1,253.74,31Zm2.83-1.39h18q0-.46,0-1a9.68,9.68,0,0,0-.32-1.61l-0.54-2a7.88,7.88,0,0,0-.94-2.09,8.11,8.11,0,0,0-1.59-1.89,7.34,7.34,0,0,0-2.35-1.31,9.45,9.45,0,0,0-3.21-.52A8,8,0,0,0,259,21.81Q256.79,24.53,256.57,29.57Z" transform="translate(-1.65 -1.19)"/><path class="b" d="M281.55,43.94V19q1.12-.49,2.61-1a37.34,37.34,0,0,1,4.38-1,32.35,32.35,0,0,1,5.69-.57v2.69a38.13,38.13,0,0,0-10,1.66V43.94h-2.72Z" transform="translate(-1.65 -1.19)"/><path class="b" d="M295.55,36.24a20,20,0,0,1-.78-5.85,20,20,0,0,1,.78-5.85,12.1,12.1,0,0,1,2-4A9.84,9.84,0,0,1,300.46,18a11.9,11.9,0,0,1,3.38-1.29,18.86,18.86,0,0,1,7.13,0A11.89,11.89,0,0,1,314.35,18a10,10,0,0,1,2.94,2.46,11.9,11.9,0,0,1,2,4,20,20,0,0,1,.78,5.85,20,20,0,0,1-.78,5.85,11.9,11.9,0,0,1-2,4,10,10,0,0,1-2.94,2.46A11.86,11.86,0,0,1,311,44a18.86,18.86,0,0,1-7.13,0,11.87,11.87,0,0,1-3.38-1.29,9.83,9.83,0,0,1-2.93-2.46A12.1,12.1,0,0,1,295.55,36.24ZM298.2,25a18,18,0,0,0-.71,5.38,18,18,0,0,0,.71,5.38,8.4,8.4,0,0,0,2,3.55,8.08,8.08,0,0,0,3.1,1.91,12.63,12.63,0,0,0,4.06.6q4.76,0,7.35-2.67t2.59-8.77q0-6.1-2.59-8.77T307.4,19a12.65,12.65,0,0,0-4.06.6,8.08,8.08,0,0,0-3.1,1.91A8.39,8.39,0,0,0,298.2,25Z" transform="translate(-1.65 -1.19)"/><path class="b" d="M3.65,48.88A2,2,0,0,1,2,45.83L29.09,2.13a2,2,0,0,1,3.4,2.11L5.35,47.94A2,2,0,0,1,3.65,48.88Z" transform="translate(-1.65 -1.19)"/></svg>