<?xml version="1.0" encoding="utf-8"?>
<!-- Generator: Adobe Illustrator 17.1.0, SVG Export Plug-In . SVG Version: 6.00 Build 0)  -->
<!DOCTYPE svg PUBLIC "-//W3C//DTD SVG 1.1//EN" "http://www.w3.org/Graphics/SVG/1.1/DTD/svg11.dtd">
<svg version="1.1" id="Layer_1" xmlns="http://www.w3.org/2000/svg" xmlns:xlink="http://www.w3.org/1999/xlink" x="0px" y="0px"
	 viewBox="0 0 169.6 36.3" enable-background="new 0 0 169.6 36.3" xml:space="preserve">
<g>
	<path fill="#E44F26" d="M28.6,32.5V9.8h1v22.7H28.6z"/>
	<path fill="#E44F26" d="M33.1,27.8c0-0.7,0.1-1.2,0.3-1.8c0.2-0.5,0.5-1,0.8-1.3c0.3-0.3,0.8-0.7,1.2-0.9c0.5-0.3,1-0.5,1.4-0.6
		c0.5-0.1,1-0.2,1.5-0.3c0.5-0.1,1-0.1,1.3-0.2c0.3,0,0.7,0,1,0c1.4,0,2.9,0.2,4.6,0.5c0-2.1-0.4-3.7-1.3-4.7
		c-0.9-1-2.4-1.5-4.6-1.5c-1.5,0-3,0.2-4.6,0.7v-0.9c1.5-0.5,3-0.7,4.6-0.7c2.4,0,4.2,0.6,5.3,1.7c1.1,1.1,1.6,2.9,1.6,5.2v5.1
		c0,0.6-0.1,1.1-0.3,1.6c-0.2,0.5-0.4,0.9-0.7,1.2c-0.3,0.3-0.6,0.6-1,0.9c-0.4,0.3-0.8,0.5-1.2,0.6c-0.4,0.1-0.8,0.3-1.2,0.3
		c-0.4,0.1-0.8,0.1-1.2,0.2c-0.3,0-0.7,0-1,0c-0.5,0-1,0-1.5-0.1c-0.5-0.1-1.1-0.2-1.8-0.4c-0.6-0.2-1.2-0.5-1.7-0.8
		s-0.9-0.8-1.2-1.5C33.2,29.3,33.1,28.6,33.1,27.8z M34,27.8c0,0.7,0.1,1.3,0.4,1.8c0.3,0.5,0.6,0.9,1,1.2c0.4,0.3,0.9,0.5,1.4,0.7
		c0.5,0.2,1.1,0.3,1.5,0.4c0.5,0.1,0.9,0.1,1.4,0.1c0.5,0,0.9,0,1.3-0.1c0.4-0.1,0.9-0.2,1.5-0.3c0.5-0.2,1-0.4,1.4-0.7
		c0.4-0.3,0.7-0.7,1-1.2c0.3-0.5,0.4-1.1,0.4-1.7V24c-1.6-0.3-3.1-0.4-4.5-0.4c-0.4,0-0.8,0-1.2,0c-0.4,0-0.9,0.1-1.4,0.2
		c-0.6,0.1-1.1,0.2-1.5,0.4c-0.5,0.2-0.9,0.4-1.3,0.7c-0.4,0.3-0.7,0.7-1,1.2C34.2,26.6,34,27.1,34,27.8z"/>
	<path fill="#E44F26" d="M48.3,17v-0.9h2.4v-4.6h1v4.6h5.3V17h-5.3v11.6c0,2.1,1.1,3.2,3.2,3.2c0.8,0,1.5-0.1,2.1-0.3v0.9
		c-0.8,0.2-1.6,0.3-2.2,0.3c-0.2,0-0.4,0-0.6,0c-0.2,0-0.4,0-0.7-0.1c-0.3-0.1-0.6-0.1-0.8-0.2c-0.2-0.1-0.5-0.2-0.7-0.4
		s-0.5-0.4-0.7-0.7c-0.2-0.3-0.3-0.6-0.4-1.1c-0.1-0.4-0.2-0.9-0.2-1.5V17H48.3z"/>
	<path fill="#E44F26" d="M59.9,13v-2.4h1V13H59.9z M59.9,32.5V16.2h1v16.4H59.9z"/>
	<path fill="#E44F26" d="M64.6,24.4c0-1.3,0.2-2.5,0.5-3.6c0.3-1,0.7-1.8,1.2-2.5c0.5-0.6,1.1-1.1,1.8-1.5c0.7-0.4,1.4-0.7,2-0.8
		c0.7-0.1,1.4-0.2,2.2-0.2c0.8,0,1.5,0.1,2.1,0.2c0.7,0.1,1.3,0.4,2,0.8c0.7,0.4,1.3,0.9,1.8,1.5c0.5,0.6,0.9,1.4,1.2,2.5
		c0.3,1,0.5,2.2,0.5,3.6c0,1.3-0.2,2.5-0.5,3.5c-0.3,1-0.7,1.8-1.2,2.4c-0.5,0.6-1.1,1.1-1.8,1.5c-0.7,0.4-1.4,0.6-2,0.8
		c-0.7,0.1-1.4,0.2-2.1,0.2c-0.8,0-1.5-0.1-2.2-0.2c-0.7-0.1-1.4-0.4-2.1-0.8c-0.7-0.4-1.3-0.9-1.8-1.5c-0.5-0.6-0.9-1.4-1.2-2.4
		C64.7,26.9,64.6,25.7,64.6,24.4z M65.5,24.4c0,1.1,0.1,2.2,0.4,3c0.2,0.9,0.6,1.6,1,2.2c0.4,0.6,0.9,1,1.5,1.4
		c0.6,0.4,1.2,0.6,1.8,0.7c0.6,0.1,1.3,0.2,2,0.2c0.7,0,1.4-0.1,2-0.2c0.6-0.1,1.2-0.4,1.8-0.7c0.6-0.4,1.1-0.8,1.5-1.4
		c0.4-0.6,0.7-1.3,1-2.2c0.2-0.9,0.4-1.9,0.4-3c0-1.2-0.1-2.2-0.4-3.1c-0.2-0.9-0.6-1.6-1-2.2c-0.4-0.6-0.9-1-1.5-1.4
		c-0.6-0.4-1.2-0.6-1.8-0.8c-0.6-0.1-1.3-0.2-2-0.2c-0.7,0-1.4,0.1-2,0.2c-0.6,0.1-1.2,0.4-1.8,0.8c-0.6,0.4-1.1,0.8-1.5,1.4
		c-0.4,0.6-0.7,1.3-1,2.2C65.6,22.2,65.5,23.2,65.5,24.4z"/>
	<path fill="#E44F26" d="M83.4,32.5V17.8c2.3-1.3,4.7-1.9,7.1-1.9c2,0,3.5,0.5,4.6,1.5c1.1,1,1.6,2.5,1.6,4.5v10.7h-1V21.8
		c0-3.3-1.8-5-5.3-5c-2,0-4,0.5-6.1,1.5v14.2H83.4z"/>
	<path fill="#2CB3C4" d="M100.7,27.8v-18h0.9v7.1c1.7-0.6,3.4-1,5.2-1c0.5,0,1.1,0,1.5,0.1c0.5,0.1,1,0.2,1.5,0.4
		c0.5,0.2,1,0.4,1.4,0.7c0.4,0.3,0.8,0.6,1.2,1.1c0.4,0.4,0.7,0.9,1,1.5c0.3,0.6,0.5,1.2,0.6,2c0.2,0.8,0.2,1.7,0.2,2.6
		c0,1.4-0.2,2.7-0.5,3.7c-0.3,1.1-0.7,1.9-1.2,2.5c-0.5,0.6-1.1,1.1-1.8,1.4c-0.7,0.4-1.3,0.6-1.9,0.7c-0.6,0.1-1.2,0.2-1.9,0.2
		c-1.1,0-2-0.1-2.9-0.4c-0.8-0.3-1.4-0.6-1.9-1c-0.4-0.4-0.8-0.8-1-1.3c-0.3-0.5-0.4-0.9-0.5-1.3C100.7,28.4,100.7,28.1,100.7,27.8z
		 M101.7,27.8c0,0.3,0,0.6,0.1,1c0.1,0.3,0.3,0.7,0.5,1.1c0.2,0.4,0.6,0.7,0.9,1c0.4,0.3,0.9,0.5,1.6,0.7c0.7,0.2,1.4,0.3,2.2,0.3
		c4.3,0,6.4-2.6,6.4-7.7c0-5-2.2-7.5-6.5-7.5c-1.8,0-3.6,0.3-5.2,1V27.8z"/>
	<path fill="#2CB3C4" d="M117.3,27.8c0-0.7,0.1-1.2,0.3-1.8c0.2-0.5,0.5-1,0.8-1.3c0.3-0.3,0.8-0.7,1.2-0.9c0.5-0.3,1-0.5,1.4-0.6
		c0.5-0.1,1-0.2,1.5-0.3c0.5-0.1,1-0.1,1.3-0.2c0.3,0,0.7,0,1,0c1.4,0,2.9,0.2,4.6,0.5c0-2.1-0.4-3.7-1.3-4.7
		c-0.9-1-2.4-1.5-4.6-1.5c-1.5,0-3,0.2-4.6,0.7v-0.9c1.5-0.5,3-0.7,4.6-0.7c2.4,0,4.2,0.6,5.3,1.7c1.1,1.1,1.6,2.9,1.6,5.2v5.1
		c0,0.6-0.1,1.1-0.3,1.6c-0.2,0.5-0.4,0.9-0.7,1.2s-0.6,0.6-1,0.9s-0.8,0.5-1.2,0.6c-0.4,0.1-0.8,0.3-1.2,0.3
		c-0.4,0.1-0.8,0.1-1.2,0.2c-0.3,0-0.7,0-1,0c-0.5,0-1,0-1.5-0.1c-0.5-0.1-1.1-0.2-1.8-0.4c-0.6-0.2-1.2-0.5-1.7-0.8
		c-0.5-0.3-0.9-0.8-1.2-1.5C117.5,29.3,117.3,28.6,117.3,27.8z M118.3,27.8c0,0.7,0.1,1.3,0.4,1.8c0.3,0.5,0.6,0.9,1,1.2
		c0.4,0.3,0.9,0.5,1.4,0.7c0.5,0.2,1.1,0.3,1.5,0.4c0.5,0.1,0.9,0.1,1.4,0.1c0.5,0,0.9,0,1.3-0.1c0.4-0.1,0.9-0.2,1.5-0.3
		c0.5-0.2,1-0.4,1.4-0.7c0.4-0.3,0.7-0.7,1-1.2c0.3-0.5,0.4-1.1,0.4-1.7V24c-1.6-0.3-3.1-0.4-4.5-0.4c-0.4,0-0.8,0-1.2,0
		c-0.4,0-0.9,0.1-1.4,0.2c-0.6,0.1-1.1,0.2-1.5,0.4c-0.5,0.2-0.9,0.4-1.3,0.7c-0.4,0.3-0.7,0.7-1,1.2
		C118.4,26.6,118.3,27.1,118.3,27.8z"/>
	<path fill="#2CB3C4" d="M133.4,31.7v-1c1.7,0.7,3.5,1.1,5.3,1.1c1.6,0,2.8-0.3,3.6-1c0.8-0.6,1.3-1.5,1.3-2.6
		c0-0.7-0.2-1.3-0.5-1.8c-0.4-0.5-0.8-0.9-1.4-1.1c-0.6-0.3-1.2-0.5-1.9-0.7c-0.7-0.2-1.4-0.4-2.1-0.6c-0.7-0.2-1.4-0.4-1.9-0.7
		c-0.6-0.3-1.1-0.7-1.4-1.2c-0.4-0.5-0.6-1.2-0.6-2c0-1.3,0.4-2.3,1.3-3.1c0.9-0.8,2.2-1.2,4-1.2c1.5,0,3,0.3,4.7,0.9v1
		c-1.6-0.6-3.1-0.9-4.6-0.9c-1.4,0-2.4,0.3-3.2,0.9c-0.8,0.6-1.2,1.4-1.2,2.5c0,0.7,0.2,1.2,0.5,1.6c0.4,0.4,0.8,0.8,1.4,1
		c0.6,0.2,1.2,0.4,1.9,0.6s1.4,0.4,2.1,0.6c0.7,0.2,1.4,0.4,1.9,0.7c0.6,0.3,1.1,0.8,1.4,1.3c0.4,0.6,0.6,1.3,0.6,2.2
		c0,1.3-0.5,2.4-1.5,3.2s-2.4,1.3-4.4,1.3C136.9,32.8,135.1,32.4,133.4,31.7z"/>
	<path fill="#2CB3C4" d="M147.5,24.5c0-0.7,0.1-1.5,0.2-2.2c0.1-0.7,0.3-1.5,0.7-2.3c0.3-0.8,0.8-1.5,1.3-2.1
		c0.5-0.6,1.2-1.1,2.1-1.5c0.9-0.4,1.9-0.6,3.1-0.6c0.9,0,1.7,0.1,2.5,0.4c0.7,0.3,1.3,0.6,1.8,1c0.5,0.4,0.9,0.9,1.2,1.4
		c0.4,0.6,0.6,1.1,0.8,1.6c0.2,0.5,0.3,1,0.4,1.6c0.1,0.6,0.2,1,0.2,1.4c0,0.3,0,0.7,0,1c0,0.3,0,0.5,0,0.6h-13.2
		c0,0.2,0,0.5,0.1,0.8c0.1,1.1,0.3,2.1,0.6,2.9c0.4,0.8,0.9,1.5,1.5,1.9s1.3,0.8,2.1,1c0.8,0.2,1.6,0.3,2.5,0.3
		c2.1,0,3.9-0.4,5.3-1.1v1c-1.5,0.7-3.3,1-5.3,1c-0.8,0-1.6-0.1-2.3-0.2c-0.7-0.2-1.4-0.4-2.1-0.8c-0.7-0.4-1.3-0.9-1.8-1.5
		c-0.5-0.6-0.9-1.4-1.2-2.4C147.7,26.9,147.5,25.8,147.5,24.5z M148.5,24h12.2v-0.4c0-0.5-0.1-0.9-0.1-1.4c-0.1-0.5-0.2-1.1-0.5-1.7
		c-0.3-0.7-0.6-1.3-1-1.8c-0.4-0.5-1-0.9-1.7-1.3c-0.8-0.4-1.6-0.6-2.6-0.6c-0.9,0-1.7,0.1-2.4,0.4c-0.7,0.2-1.3,0.6-1.8,1
		c-0.5,0.4-0.9,1-1.2,1.6s-0.6,1.3-0.7,2C148.6,22.4,148.5,23.2,148.5,24z"/>
</g>
<g>
	<path fill="#E44F26" d="M16.3,31.5c-0.8-0.2-1.4-0.6-2.1-1c-0.6-0.5-1.1-1.1-1.5-1.9l-0.5,1.2c0.1,0.2,0.2,0.3,0.3,0.5
		c0.5,0.6,1.1,1.1,1.8,1.5c0.7,0.4,1.4,0.7,2.1,0.8c0.7,0.2,1.5,0.2,2.3,0.2c2,0,3.8-0.3,5.3-1v-1c-1.4,0.7-3.1,1.1-5.3,1.1
		C17.9,31.8,17.1,31.7,16.3,31.5z"/>
	<path fill="#E44F26" d="M25.2,23.3c0-0.3-0.1-0.8-0.2-1.4c-0.1-0.6-0.2-1.1-0.4-1.6c-0.2-0.5-0.4-1-0.8-1.6c-0.4-0.6-0.8-1-1.2-1.4
		c-0.5-0.4-1.1-0.7-1.8-1c-0.7-0.3-1.6-0.4-2.5-0.4c0,0-0.1,0-0.1,0l-0.4,0.9c0.1,0,0.3,0,0.4,0c1,0,1.8,0.2,2.6,0.6
		c0.8,0.4,1.3,0.8,1.7,1.3c0.4,0.5,0.7,1.1,1,1.8c0.3,0.7,0.4,1.3,0.5,1.7c0.1,0.5,0.1,1,0.1,1.4V24h-9.5l-0.4,0.9h10.8
		c0-0.1,0-0.3,0-0.6C25.3,24,25.2,23.7,25.2,23.3z"/>
</g>
<g>
	<path fill="#2CB3C4" d="M7.9,36.3L20.6,6.7h1.6L9.5,36.3H7.9z"/>
</g>
</svg>
